<?xml version="1.0" encoding="utf-8"?>
<!-- Generator: Adobe Illustrator 17.0.0, SVG Export Plug-In . SVG Version: 6.00 Build 0)  -->
<!DOCTYPE svg PUBLIC "-//W3C//DTD SVG 1.1//EN" "http://www.w3.org/Graphics/SVG/1.1/DTD/svg11.dtd">
<svg version="1.1" id="Layer_1" xmlns="http://www.w3.org/2000/svg" xmlns:xlink="http://www.w3.org/1999/xlink" x="0px" y="0px"
	 width="570.38px" height="242px" viewBox="0 0 570.38 242" enable-background="new 0 0 570.38 242" xml:space="preserve">
<path fill="#FFFFFF" d="M322.218,54.554c0-17.334-8.555-28-23.334-28c-15.332,0-25.664,12-25.664,29.002
	c0,15.999,9.441,28.109,26.443,28.109c11.777,0,19.555-5.557,20.111-5.89l-4.223-7.999c-1.557,0.778-7.332,4.112-14.891,4.112
	c-11.334,0-15.443-8.443-15.443-15.002h35.889c0.443,0,0.777-0.332,0.889-0.776C322.107,57.222,322.218,55.111,322.218,54.554
	L322.218,54.554z M310.663,49.777l-25.445,1.444c1.332-10.665,6.334-15.333,13.889-15.333
	C308.773,35.887,310.663,45.111,310.663,49.777L310.663,49.777z M267.443,61.108c0-13.444-10.225-18.444-20.779-22.997
	c-9.555-4.114-13.666-5.891-13.666-11.558c0-5.556,5.223-9.442,12.666-9.442c8.443,0,14.553,5.108,15.111,5.555l6-8.223
	c-0.443-0.444-8.225-7.886-22.002-7.886c-14.33,0-24.33,8.441-24.33,20.997c0,14.22,12.889,18.889,18.667,21.442
	c7.109,3.113,15.332,5.557,15.332,13.114c0,6.554-4.668,10.887-13.111,10.887c-8.887,0-15.888-5.33-17.334-6.219l-5.777,8.888
	c0.667,0.775,9.779,8.33,23.78,8.33C257.994,83.997,267.443,74.555,267.443,61.108L267.443,61.108z M423.107,66.778
	c0-10.667-9-14.111-16.559-17.224c-5.555-2.333-9.666-4.001-9.666-7.89c0-3.11,2.557-6.11,8.668-6.11
	c6.111,0,11.998,3.335,12.555,3.667l4.223-7.779c-0.332-0.22-6.336-4.888-17.557-4.888c-11.889,0-20.111,6.447-20.111,16.224
	c0,9.89,8.336,13.443,14.334,15.998c7.332,3.115,11.666,4.557,11.666,8.779c0,3.779-3.221,6.665-9.445,6.665
	c-7.332,0-13.109-3.666-14.223-4.222L382.663,78c0.664,0.553,8.221,5.779,19.773,5.779
	C414.439,83.778,423.107,77.442,423.107,66.778L423.107,66.778z M443.437,82.332V28.11h-12.221v54.222H443.437z M535.103,26.554
	c-17,0-28.445,12.78-28.445,29.111c0,14.112,8.445,26.667,24.002,26.667c7.996,0,12.775-3.335,13.666-3.779v3.666
	c0,5.335-0.336,9.556-3.666,12.445c-2.113,1.779-5.221,3.112-10.336,3.112c-8.998,0-15.887-5.001-16.666-5.445l-5.109,8.001
	c0.777,0.889,8.998,7.668,23.109,7.668c9.668,0,15.445-3.002,19.223-6.779c5.223-5.333,5.555-10.999,5.555-19.222V32.666
	c-0.109-0.555-0.332-0.888-0.777-1.111c-1.111-0.443-3.332-1.333-6.221-2.221C544.437,27.667,539.546,26.777,535.103,26.554
	L535.103,26.554z M544.326,68.776c-0.445,0.334-5.334,3.666-11.111,3.666c-7.889,0-14.223-6.445-14.223-17.331
	c0-11.445,6.777-18.555,15.889-18.555c4.998,0,8.666,1.665,9.445,1.998V68.776z M71.443,10.778c0-3-1.999-4.446-4.444-4.446
	c-2.443,0-4.445,1.446-4.445,4.446c0,2.998,2.002,4.444,4.445,4.444C69.444,15.222,71.443,13.775,71.443,10.778L71.443,10.778z
	 M70.333,82.332V29h-6.669v53.333H70.333z M126.665,54.774c0-16.33-9.109-27.108-23.444-27.108c-8.667,0-14.333,4.334-14.889,4.777
	V6.89h-6.665v72.221c0,0.553,0.333,0.997,0.889,1.222c2.333,0.888,8.443,3.111,16.441,3.111
	C114.998,83.443,126.331,71.885,126.665,54.774L126.665,54.774z M119.778,55c0,13.665-7.778,22.554-19.892,22.554
	c-6.776,0-10.442-1.555-11.555-1.888V38.778c0.779-0.557,5.999-5.221,14.223-5.221C113,33.557,119.778,42.222,119.778,55L119.778,55
	z M193.329,82.332h-6.664V33.11c0-0.556,0.222-0.89,0.665-1.109c2.558-1.113,11.223-4.446,20.777-4.446
	c4.223,0,5.889,0.665,6.222,0.78l-1.223,5.662c-0.887-0.11-2.221-0.218-4.776-0.332c-5.888-0.442-12.11,1.668-15.109,2.666
	L193.329,82.332z M18,12.222c0-0.667,0.335-1.113,0.776-1.22C32.224,6.445,47,6.221,56.222,6.89v6.777
	c-16.999-1.113-25.775,1.444-30.332,2.888c-0.445,0.113-0.779,0.555-0.779,1.222v22.779h28.999v5.889H25.11v35.888H18V12.222z
	 M156.998,27.555c-14.776,0-24.333,11.112-24.333,28.332c0,16.111,9.111,27.445,24.666,27.445c10.889,0,18.776-5.11,18.999-5.444
	l-2.999-5.112c-0.667,0.333-6.666,4.335-15.443,4.335c-12.004,0-18.336-8.446-18.336-20.224h37.223
	c0.445-0.111,0.778-0.333,0.891-0.776c0.109-0.888,0.221-2.11,0.221-2.668C177.886,37,169.331,27.555,156.998,27.555L156.998,27.555
	z M139.776,52.443c0.667-11.11,8.108-19.22,17.332-19.22c10.444,0,14.11,10.996,14.11,17.997L139.776,52.443z M376.441,55.776
	c0-5.442-0.225-11.888-0.668-14.219c-3.557-17.113-20.891-16.11-33.559-13.222c-5.221,1.22-9.332,2.664-10.887,3.331
	c-0.441,0.222-0.666,0.555-0.777,1.111v49.555h12.221V39.776c0,0-0.666-0.778,8.336-1.555c0.889-0.109,2.334-0.109,3.443-0.109
	c10.555,0,9.666,7,9.666,17.22v27.001h12.225V55.776z M444.103,11.779c0-4.67-3.109-6.89-6.887-6.89c-3.779,0-6.891,2.22-6.891,6.89
	c0,4.666,3.111,6.888,6.891,6.888C440.994,18.667,444.103,16.445,444.103,11.779L444.103,11.779z M499.771,55.776
	c0-5.442-0.223-11.888-0.666-14.219c-3.559-17.113-20.891-16.11-33.557-13.222c-5.223,1.22-9.334,2.664-10.891,3.331
	c-0.443,0.222-0.666,0.555-0.775,1.111v49.555h12.221V39.776c0,0-0.664-0.778,8.336-1.555c0.887-0.109,2.332-0.109,3.443-0.109
	c10.555,0,9.664,7,9.664,17.22v27.001h12.225V55.776z"/>
<path fill="#A7A9AC" d="M323.783,180.554c0-17.334-8.555-28.001-23.334-28.001c-15.332,0-25.664,12.001-25.664,29.002
	c0,15.999,9.441,28.109,26.443,28.109c11.777,0,19.555-5.557,20.111-5.89l-4.223-7.999c-1.557,0.778-7.332,4.112-14.891,4.112
	c-11.334,0-15.443-8.443-15.443-15.002h35.889c0.443,0,0.777-0.332,0.889-0.776C323.672,183.222,323.783,181.111,323.783,180.554
	L323.783,180.554z M312.229,175.777l-25.445,1.444c1.332-10.665,6.334-15.333,13.889-15.333
	C310.338,161.887,312.229,171.111,312.229,175.777L312.229,175.777z M269.008,187.108c0-13.444-10.225-18.444-20.779-22.997
	c-9.555-4.114-13.666-5.891-13.666-11.558c0-5.556,5.223-9.442,12.666-9.442c8.443,0,14.553,5.108,15.111,5.555l6-8.223
	c-0.443-0.444-8.225-7.886-22.002-7.886c-14.33,0-24.33,8.441-24.33,20.997c0,14.22,12.889,18.889,18.666,21.442
	c7.109,3.113,15.332,5.557,15.332,13.114c0,6.554-4.668,10.887-13.111,10.887c-8.887,0-15.888-5.33-17.335-6.219l-5.777,8.888
	c0.667,0.775,9.779,8.33,23.78,8.33C259.559,209.997,269.008,200.555,269.008,187.108L269.008,187.108z M424.672,192.778
	c0-10.668-9-14.111-16.559-17.224c-5.555-2.333-9.666-4.001-9.666-7.89c0-3.11,2.557-6.11,8.668-6.11
	c6.111,0,11.998,3.335,12.555,3.667l4.223-7.779c-0.332-0.22-6.336-4.888-17.557-4.888c-11.889,0-20.111,6.447-20.111,16.224
	c0,9.89,8.336,13.443,14.334,15.998c7.332,3.115,11.666,4.557,11.666,8.779c0,3.779-3.221,6.665-9.445,6.665
	c-7.332,0-13.109-3.666-14.223-4.222l-4.328,8.001c0.664,0.553,8.221,5.779,19.773,5.779
	C416.004,209.778,424.672,203.442,424.672,192.778L424.672,192.778z M445.002,208.332V154.11h-12.221v54.222H445.002z
	 M536.668,152.554c-17,0-28.445,12.78-28.445,29.111c0,14.112,8.445,26.667,24.002,26.667c7.996,0,12.775-3.335,13.666-3.779v3.667
	c0,5.335-0.336,9.556-3.666,12.445c-2.113,1.779-5.221,3.112-10.336,3.112c-8.998,0-15.887-5.001-16.666-5.445l-5.109,8.001
	c0.777,0.889,8.998,7.668,23.109,7.668c9.668,0,15.445-3.002,19.223-6.779c5.223-5.334,5.555-10.999,5.555-19.222v-49.333
	c-0.109-0.555-0.332-0.888-0.777-1.111c-1.111-0.443-3.332-1.333-6.221-2.221C546.002,153.667,541.111,152.777,536.668,152.554
	L536.668,152.554z M545.891,194.776c-0.445,0.333-5.334,3.666-11.111,3.666c-7.889,0-14.223-6.445-14.223-17.331
	c0-11.445,6.777-18.555,15.889-18.555c4.998,0,8.666,1.665,9.445,1.998V194.776z M73.008,136.778c0-2.999-1.999-4.446-4.444-4.446
	c-2.443,0-4.445,1.446-4.445,4.446c0,2.998,2.002,4.444,4.445,4.444C71.009,141.222,73.008,139.775,73.008,136.778L73.008,136.778z
	 M71.898,208.332v-53.333h-6.669v53.333H71.898z M128.23,180.774c0-16.33-9.109-27.108-23.444-27.108
	c-8.667,0-14.333,4.334-14.889,4.777V132.89h-6.665v72.221c0,0.553,0.333,0.997,0.889,1.222c2.333,0.888,8.443,3.111,16.441,3.111
	C116.563,209.443,127.896,197.885,128.23,180.774L128.23,180.774z M121.343,181.001c0,13.664-7.778,22.554-19.892,22.554
	c-6.776,0-10.442-1.555-11.555-1.888v-36.889c0.779-0.557,5.999-5.221,14.223-5.221
	C114.565,159.557,121.343,168.222,121.343,181.001L121.343,181.001z M194.894,208.332h-6.664V159.11c0-0.556,0.222-0.89,0.665-1.109
	c2.558-1.113,11.223-4.446,20.777-4.446c4.223,0,5.889,0.665,6.222,0.78l-1.223,5.662c-0.887-0.11-2.221-0.218-4.776-0.331
	c-5.888-0.442-12.11,1.668-15.109,2.666L194.894,208.332z M19.565,138.222c0-0.667,0.335-1.113,0.776-1.22
	c13.447-4.557,28.224-4.782,37.445-4.113v6.777c-16.999-1.113-25.775,1.444-30.332,2.888c-0.445,0.113-0.779,0.555-0.779,1.222
	v22.779h28.999v5.889H26.675v35.888h-7.11V138.222z M158.563,153.555c-14.776,0-24.333,11.112-24.333,28.332
	c0,16.111,9.111,27.445,24.666,27.445c10.889,0,18.776-5.11,18.999-5.444l-2.999-5.112c-0.667,0.333-6.666,4.335-15.443,4.335
	c-12.004,0-18.336-8.446-18.336-20.224h37.223c0.445-0.111,0.778-0.334,0.891-0.776c0.109-0.888,0.221-2.11,0.221-2.668
	C179.451,163,170.896,153.555,158.563,153.555L158.563,153.555z M141.341,178.443c0.667-11.11,8.107-19.22,17.332-19.22
	c10.444,0,14.11,10.996,14.11,17.997L141.341,178.443z M378.006,181.776c0-5.442-0.225-11.888-0.668-14.219
	c-3.557-17.113-20.891-16.11-33.559-13.222c-5.221,1.22-9.332,2.664-10.887,3.331c-0.441,0.222-0.666,0.555-0.777,1.111v49.555
	h12.221v-42.556c0,0-0.666-0.778,8.336-1.555c0.889-0.109,2.334-0.109,3.443-0.109c10.555,0,9.666,6.999,9.666,17.22v27.001h12.225
	V181.776z M445.668,137.779c0-4.67-3.109-6.89-6.887-6.89c-3.779,0-6.891,2.22-6.891,6.89c0,4.666,3.111,6.888,6.891,6.888
	C442.559,144.667,445.668,142.445,445.668,137.779L445.668,137.779z M501.336,181.776c0-5.442-0.223-11.888-0.666-14.219
	c-3.559-17.113-20.891-16.11-33.557-13.222c-5.223,1.22-9.334,2.664-10.891,3.331c-0.443,0.222-0.666,0.555-0.775,1.111v49.555
	h12.221v-42.556c0,0-0.664-0.778,8.336-1.555c0.887-0.109,2.332-0.109,3.443-0.109c10.555,0,9.664,6.999,9.664,17.22v27.001h12.225
	V181.776z"/>
</svg>
