<?xml version="1.0" encoding="utf-8"?>
<!-- Generator: Adobe Illustrator 16.0.0, SVG Export Plug-In . SVG Version: 6.00 Build 0)  -->
<!DOCTYPE svg PUBLIC "-//W3C//DTD SVG 1.1//EN" "http://www.w3.org/Graphics/SVG/1.1/DTD/svg11.dtd">
<svg version="1.1" id="Layer_1" xmlns="http://www.w3.org/2000/svg" xmlns:xlink="http://www.w3.org/1999/xlink" x="0px" y="0px"
	 width="161px" height="320px" viewBox="0 0 161 320" enable-background="new 0 0 161 320" xml:space="preserve">
<g>
	<path fill-rule="evenodd" clip-rule="evenodd" fill="#FFFFFF" d="M9.058,189H150.5v83.958H9.058V189z M19.269,196.942h121.02
		v33.593c3.758,4.104,6.051,9.571,6.051,15.572c0,6.001-2.293,11.467-6.051,15.57v3.339h-3.807c-3.742,2.62-8.297,4.16-13.211,4.16
		c-4.916,0-9.473-1.54-13.215-4.16H19.269V196.942z"/>
	<path fill-rule="evenodd" clip-rule="evenodd" fill="#FFFFFF" d="M123.271,213.205c10.191,0,19.303,4.636,25.338,11.915v41.972
		c-0.486,0.587-0.994,1.155-1.518,1.706h-19.65c10.748-1.964,18.898-11.376,18.898-22.69c0-12.739-10.33-23.069-23.068-23.069
		c-12.74,0-23.07,10.33-23.07,23.069c0,11.314,8.15,20.727,18.898,22.69H99.447c-5.625-5.903-9.08-13.894-9.08-22.69
		C90.367,227.938,105.102,213.205,123.271,213.205"/>
	<path fill-rule="evenodd" clip-rule="evenodd" fill="#FFFFFF" d="M9.149,276.74h10.734v15.529h18.035V276.74h11.347v38.576H37.918
		v-15.232H19.883v15.232H9.149V276.74z M54.938,276.74h26.464c4.039,0,7.143,0.928,9.299,2.766c2.164,1.845,3.25,4.123,3.25,6.835
		c0,2.282-0.768,4.242-2.312,5.874c-1.031,1.091-2.537,1.949-4.52,2.578c3.008,0.665,5.227,1.811,6.646,3.432
		c1.42,1.62,2.127,3.664,2.127,6.115c0,2.003-0.504,3.803-1.512,5.398c-1.012,1.601-2.391,2.856-4.148,3.79
		c-1.082,0.576-2.723,0.996-4.918,1.258c-2.918,0.348-4.85,0.53-5.805,0.53H54.938V276.74z M64.498,291.874h12.09
		c2.02,0,3.43-0.317,4.225-0.961c0.795-0.641,1.182-1.572,1.182-2.774c0-1.123-0.391-2.004-1.182-2.633
		c-0.799-0.637-2.175-0.952-4.137-0.952H64.498V291.874z M64.498,307.026h13.066c2.234,0,3.803-0.362,4.713-1.087
		c0.914-0.73,1.375-1.707,1.375-2.938c0-1.141-0.447-2.057-1.355-2.748s-2.489-1.042-4.763-1.042H64.498V307.026z M99.391,276.74
		h13.531l12.482,25.683l11.9-25.683h13.104v38.576h-10.209v-21.294l-10.236,21.294l-8.891,0.009l-11.074-20.934v20.925H99.391
		V276.74z"/>
</g>
<g>
	<path fill-rule="evenodd" clip-rule="evenodd" fill="#2F3068" d="M123.271,27.705c10.191,0,19.303,4.636,25.338,11.915v41.972
		c-0.486,0.587-0.994,1.155-1.518,1.706h-19.65c10.748-1.964,18.898-11.376,18.898-22.69c0-12.739-10.33-23.069-23.068-23.069
		c-12.74,0-23.07,10.33-23.07,23.069c0,11.314,8.15,20.727,18.898,22.69H99.447c-5.625-5.903-9.08-13.894-9.08-22.69
		C90.367,42.438,105.102,27.705,123.271,27.705"/>
	<g>
		<path fill-rule="evenodd" clip-rule="evenodd" fill="#2F3068" d="M9.058,3.5H150.5v83.958H9.058V3.5z M19.269,11.442h121.02
			v33.593c3.758,4.104,6.051,9.571,6.051,15.572c0,6.001-2.293,11.467-6.051,15.57v3.339h-3.807c-3.742,2.62-8.297,4.16-13.211,4.16
			c-4.916,0-9.473-1.54-13.215-4.16H19.269V11.442z"/>
		<path fill-rule="evenodd" clip-rule="evenodd" fill="#2F3068" d="M9.149,91.24h10.734v15.529h18.035V91.24h11.347v38.576H37.918
			v-15.232H19.883v15.232H9.149V91.24z M54.938,91.24h26.464c4.039,0,7.143,0.928,9.299,2.766c2.164,1.845,3.25,4.123,3.25,6.835
			c0,2.282-0.768,4.242-2.312,5.874c-1.031,1.091-2.537,1.949-4.52,2.578c3.008,0.665,5.227,1.811,6.646,3.432
			c1.42,1.62,2.127,3.664,2.127,6.115c0,2.003-0.504,3.803-1.512,5.398c-1.012,1.601-2.391,2.856-4.148,3.79
			c-1.082,0.576-2.723,0.996-4.918,1.258c-2.918,0.348-4.85,0.53-5.805,0.53H54.938V91.24z M64.498,106.374h12.09
			c2.02,0,3.43-0.317,4.225-0.961c0.795-0.641,1.182-1.572,1.182-2.774c0-1.123-0.391-2.004-1.182-2.633
			c-0.799-0.637-2.175-0.952-4.137-0.952H64.498V106.374z M64.498,121.526h13.066c2.234,0,3.803-0.362,4.713-1.087
			c0.914-0.73,1.375-1.707,1.375-2.938c0-1.141-0.447-2.057-1.355-2.748s-2.489-1.042-4.763-1.042H64.498V121.526z M99.391,91.24
			h13.531l12.482,25.683l11.9-25.683h13.104v38.576h-10.209v-21.294l-10.236,21.294l-8.891,0.009l-11.074-20.934v20.925H99.391
			V91.24z"/>
	</g>
</g>
</svg>
