<svg xmlns="http://www.w3.org/2000/svg" xmlns:xlink="http://www.w3.org/1999/xlink" version="1.1" id="Layer_1" x="0" y="0" width="342" height="75" viewBox="-126.5 0 342 75" enable-background="new -126.5 0 342 75" xml:space="preserve">
  <path fill="#FFFFFF" d="M-126.5 0h2v75h-2V0z"/>
  <path fill="#FFFFFF" d="M-58.5 0h2v45h-2V0z"/>
  <path fill="#FFFFFF" d="M-75.5 15h2v15h-2V15z"/>
  <path fill="#FFFFFF" d="M-109.5 15h2v15h-2V15z"/>
  <path fill="#FFFFFF" d="M-92.5 15h2v15h-2V15z"/>
  <path fill="#FFFFFF" d="M9.5 0h2v45h-2V0z"/>
  <path fill="#FFFFFF" d="M-7.5 15h2v15h-2V15z"/>
  <path fill="#FFFFFF" d="M-41.5 15h2v15h-2V15z"/>
  <path fill="#FFFFFF" d="M-24.5 15h2v15h-2V15z"/>
  <path fill="#FFFFFF" d="M77.5 0h2v45h-2V0z"/>
  <path fill="#FFFFFF" d="M60.5 15h2v15h-2V15z"/>
  <path fill="#FFFFFF" d="M26.5 15h2v15h-2V15z"/>
  <path fill="#FFFFFF" d="M43.5 15h2v15h-2V15z"/>
  <path fill="#FFFFFF" d="M145.5 0h2v45h-2V0z"/>
  <path fill="#FFFFFF" d="M128.5 15h2v15h-2V15z"/>
  <path fill="#FFFFFF" d="M94.5 15h2v15h-2V15z"/>
  <path fill="#FFFFFF" d="M111.5 15h2v15h-2V15z"/>
  <path fill="#FFFFFF" d="M196.5 15h2v15h-2V15z"/>
  <path fill="#FFFFFF" d="M162.5 15h2v15h-2V15z"/>
  <path fill="#FFFFFF" d="M179.5 15h2v15h-2V15z"/>
</svg>