<?xml version="1.0" encoding="utf-8"?>
<!-- Generated by IcoMoon.io -->
<!DOCTYPE svg PUBLIC "-//W3C//DTD SVG 1.1//EN" "http://www.w3.org/Graphics/SVG/1.1/DTD/svg11.dtd">
<svg version="1.1" xmlns="http://www.w3.org/2000/svg" xmlns:xlink="http://www.w3.org/1999/xlink" width="20" height="20" viewBox="0 0 32 32">
    <path d="M6.655 6.657c-5.161 5.161-5.161 13.527 0 18.687 5.161 5.162 13.529 5.162 18.688 0 5.162-5.16 5.162-13.527 0-18.687-5.16-5.162-13.527-5.162-18.688 0zM23.475 23.476c-4.129 4.126-10.822 4.126-14.951 0-4.129-4.13-4.129-10.822 0-14.951s10.822-4.129 14.951 0 4.129 10.822 0 14.951z" fill="#5257df" />
    <path d="M14 22.464c-0.312-0.035-0.604-0.18-0.822-0.412l-4.164-4.455c-0.499-0.532-0.471-1.369 0.063-1.867 0.533-0.499 1.369-0.471 1.867 0.063l3.144 3.364 6.69-7.988c0.468-0.56 1.301-0.634 1.86-0.166s0.634 1.302 0.166 1.862l-7.649 9.133c-0.244 0.29-0.599 0.462-0.978 0.472-0.059 0.003-0.118 0-0.178-0.006z" fill="#5257df" />
</svg>
