<?xml version="1.0" encoding="utf-8"?>
<!-- Generated by IcoMoon.io -->
<!DOCTYPE svg PUBLIC "-//W3C//DTD SVG 1.1//EN" "http://www.w3.org/Graphics/SVG/1.1/DTD/svg11.dtd">
<svg version="1.1" xmlns="http://www.w3.org/2000/svg" xmlns:xlink="http://www.w3.org/1999/xlink" width="32" height="32" viewBox="0 0 32 32">
<g>
</g>
	<path d="M16.001 11.662c-0.443 0-0.795-0.352-0.795-0.795s0.352-0.794 0.795-0.794 0.794 0.351 0.794 0.794c-0.001 0.443-0.352 0.795-0.794 0.795zM16.658 20.616h-1.299v-7.397h1.299v7.397z" fill="#ffffff" />
	<path d="M16 30.117c-7.784 0-14.117-6.333-14.117-14.117s6.333-14.117 14.117-14.117 14.117 6.333 14.117 14.117-6.333 14.117-14.117 14.117zM16 2.824c-7.266 0-13.176 5.91-13.176 13.176s5.91 13.176 13.176 13.176 13.176-5.91 13.176-13.176-5.91-13.176-13.176-13.176z" fill="#ffffff" />
</svg>
