<?xml version="1.0" encoding="utf-8"?>
<!DOCTYPE svg PUBLIC "-//W3C//DTD SVG 1.1//EN" "http://www.w3.org/Graphics/SVG/1.1/DTD/svg11.dtd">
<svg version="1.1" xmlns="http://www.w3.org/2000/svg" xmlns:xlink="http://www.w3.org/1999/xlink" width="19" height="32" viewBox="0 0 19 32">
	<path d="M16.609 14.514c-0.78 0-1.412 0.632-1.412 1.412 0 0.779 0.632 1.412 1.412 1.412s1.412-0.632 1.412-1.412c0-0.78-0.632-1.412-1.412-1.412zM11.903 9.808c-0.78 0-1.412 0.632-1.412 1.412s0.632 1.412 1.412 1.412 1.412-0.632 1.412-1.412-0.632-1.412-1.412-1.412zM11.903 19.22c-0.78 0-1.412 0.632-1.412 1.411s0.632 1.412 1.412 1.412 1.412-0.632 1.412-1.412-0.632-1.411-1.412-1.411zM7.197 5.102c-0.78 0-1.412 0.632-1.412 1.412s0.632 1.412 1.412 1.412 1.412-0.632 1.412-1.412-0.632-1.412-1.412-1.412zM7.197 23.926c-0.78 0-1.412 0.632-1.412 1.412s0.632 1.412 1.412 1.412 1.412-0.632 1.412-1.412-0.632-1.412-1.412-1.412zM2.491 0.397c-0.78 0-1.412 0.632-1.412 1.411s0.632 1.412 1.412 1.412c0.779 0 1.412-0.632 1.412-1.412s-0.632-1.411-1.412-1.411zM2.491 28.632c-0.78 0-1.412 0.632-1.412 1.412s0.632 1.412 1.412 1.412c0.779 0 1.412-0.632 1.412-1.412s-0.632-1.412-1.412-1.412z" fill="#5257df" />
</svg>
