<svg xmlns="http://www.w3.org/2000/svg" xmlns:xlink="http://www.w3.org/1999/xlink" version="1.1" id="Layer_1" x="0px" y="0px" width="43px" height="43px" viewBox="0 0 43 43" enable-background="new 0 0 43 43" xml:space="preserve">
  <g>
    <g>
      <linearGradient id="SVGID_1_" gradientUnits="userSpaceOnUse" x1="271.0376" y1="931.2783" x2="309.5879" y2="912.4761" gradientTransform="matrix(1 0 0 1 -268.5 -900.0029)">
        <stop offset="0" stop-color="#6D15D4"/>
        <stop offset="0.4053" stop-color="#7A25E1"/>
        <stop offset="0.7737" stop-color="#4962DC"/>
        <stop offset="1" stop-color="#3081D9"/>
      </linearGradient>
      <path fill="url(#SVGID_1_)" d="M21.813 0.434c-11.843 0-21.441 9.6-21.441 21.441 0 11.84 9.6 21.441 21.441 21.441 11.84 0 21.44-9.602 21.44-21.441C43.253 10.034 33.655 0.434 21.813 0.434zM28.989 18.402l-7.932 8.529c-0.252 0.271-0.621 0.432-1.015 0.439 -0.062 0.002-0.125 0-0.187-0.008 -0.324-0.031-0.627-0.166-0.852-0.383l-4.32-4.16c-0.516-0.498-0.486-1.278 0.066-1.744 0.553-0.465 1.42-0.439 1.938 0.058l3.263 3.144 6.938-7.459c0.482-0.521 1.35-0.592 1.93-0.154C29.399 17.104 29.475 17.88 28.989 18.402z"/>
    </g>
    <g>
      <path fill="#FFFFFF" d="M28.989 18.403l-7.932 8.529c-0.252 0.271-0.621 0.432-1.015 0.439 -0.062 0.002-0.125 0-0.187-0.008 -0.324-0.031-0.627-0.166-0.852-0.383l-4.32-4.16c-0.516-0.498-0.486-1.278 0.066-1.744 0.553-0.465 1.42-0.439 1.938 0.058l3.263 3.144 6.938-7.459c0.482-0.521 1.35-0.592 1.93-0.154C29.399 17.104 29.475 17.881 28.989 18.403z"/>
    </g>
  </g>
</svg>
