<?xml version="1.0" encoding="utf-8"?>
<!-- Generator: Adobe Illustrator 15.0.2, SVG Export Plug-In . SVG Version: 6.00 Build 0)  -->
<!DOCTYPE svg PUBLIC "-//W3C//DTD SVG 1.1//EN" "http://www.w3.org/Graphics/SVG/1.1/DTD/svg11.dtd">
<svg version="1.1" id="Layer_1" xmlns="http://www.w3.org/2000/svg" xmlns:xlink="http://www.w3.org/1999/xlink" x="0px" y="0px"
	 width="143px" height="94px" viewBox="0 0 143 94" enable-background="new 0 0 143 94" preserveAspectRatio = "xMidYMid">
<g>
	<linearGradient id="SVGID_1_" gradientUnits="userSpaceOnUse" x1="42.2109" y1="-3.0366" x2="143.2109" y2="64.9634">
		<stop  offset="0" style="stop-color:#6B13D3"/>
		<stop  offset="0.3436" style="stop-color:#7A25E1"/>
		<stop  offset="1" style="stop-color:#4962DC"/>
	</linearGradient>
	<path fill="url(#SVGID_1_)" d="M139.458,59.859c-1.407,0-2.542,1.151-2.542,2.577c0,1.41,1.135,2.578,2.542,2.578
		c1.39,0,2.542-1.168,2.542-2.578C142,61.01,140.848,59.859,139.458,59.859z"/>
	<linearGradient id="SVGID_2_" gradientUnits="userSpaceOnUse" x1="37.3359" y1="4.1831" x2="138.3456" y2="72.1896">
		<stop  offset="0" style="stop-color:#6B13D3"/>
		<stop  offset="0.3436" style="stop-color:#7A25E1"/>
		<stop  offset="1" style="stop-color:#4962DC"/>
	</linearGradient>
	<path fill="url(#SVGID_2_)" d="M139.458,70.359c-1.407,0-2.542,1.151-2.542,2.578s1.135,2.578,2.542,2.578
		c1.39,0,2.542-1.151,2.542-2.578S140.848,70.359,139.458,70.359z"/>
	<linearGradient id="SVGID_3_" gradientUnits="userSpaceOnUse" x1="32.4829" y1="11.4331" x2="133.4733" y2="79.4266">
		<stop  offset="0" style="stop-color:#6B13D3"/>
		<stop  offset="0.3436" style="stop-color:#7A25E1"/>
		<stop  offset="1" style="stop-color:#4962DC"/>
	</linearGradient>
	<path fill="url(#SVGID_3_)" d="M139.458,80.875c-1.407,0-2.542,1.151-2.542,2.578c0,1.427,1.135,2.578,2.542,2.578
		c1.39,0,2.542-1.151,2.542-2.578C142,82.027,140.848,80.875,139.458,80.875z"/>
	<linearGradient id="SVGID_4_" gradientUnits="userSpaceOnUse" x1="51.9453" y1="-17.5146" x2="152.955" y2="50.4919">
		<stop  offset="0" style="stop-color:#6B13D3"/>
		<stop  offset="0.3436" style="stop-color:#7A25E1"/>
		<stop  offset="1" style="stop-color:#4962DC"/>
	</linearGradient>
	<path fill="url(#SVGID_4_)" d="M139.458,43.98c1.39,0,2.542-1.151,2.542-2.578c0-1.426-1.152-2.578-2.542-2.578
		c-1.407,0-2.542,1.151-2.542,2.578C136.916,42.829,138.051,43.98,139.458,43.98z"/>
	<linearGradient id="SVGID_5_" gradientUnits="userSpaceOnUse" x1="29.1768" y1="16.3237" x2="130.1768" y2="84.3237">
		<stop  offset="0" style="stop-color:#6B13D3"/>
		<stop  offset="0.3436" style="stop-color:#7A25E1"/>
		<stop  offset="1" style="stop-color:#4962DC"/>
	</linearGradient>
	<path fill="url(#SVGID_5_)" d="M129.493,81.287c-1.407,0-2.526,1.17-2.526,2.578c0,1.426,1.119,2.577,2.526,2.577
		c1.407,0,2.559-1.151,2.559-2.577C132.052,82.457,130.9,81.287,129.493,81.287z"/>
	<linearGradient id="SVGID_6_" gradientUnits="userSpaceOnUse" x1="48.7358" y1="-12.7285" x2="149.7358" y2="55.2715">
		<stop  offset="0" style="stop-color:#6B13D3"/>
		<stop  offset="0.3436" style="stop-color:#7A25E1"/>
		<stop  offset="1" style="stop-color:#4962DC"/>
	</linearGradient>
	<path fill="url(#SVGID_6_)" d="M129.121,43.964c1.39,0,2.525-1.151,2.525-2.578c0-1.427-1.135-2.578-2.525-2.578
		c-1.407,0-2.559,1.151-2.559,2.578C126.562,42.812,127.714,43.964,129.121,43.964z"/>
	<linearGradient id="SVGID_7_" gradientUnits="userSpaceOnUse" x1="47.0732" y1="-10.2773" x2="148.0829" y2="57.7292">
		<stop  offset="0" style="stop-color:#6B13D3"/>
		<stop  offset="0.3436" style="stop-color:#7A25E1"/>
		<stop  offset="1" style="stop-color:#4962DC"/>
	</linearGradient>
	<path fill="url(#SVGID_7_)" d="M139.458,49.342c-1.407,0-2.542,1.151-2.542,2.577s1.135,2.578,2.542,2.578
		c1.39,0,2.542-1.151,2.542-2.578S140.848,49.342,139.458,49.342z"/>
	<linearGradient id="SVGID_8_" gradientUnits="userSpaceOnUse" x1="1.083" y1="58.0503" x2="102.083" y2="126.0503">
		<stop  offset="0" style="stop-color:#6B13D3"/>
		<stop  offset="0.3436" style="stop-color:#7A25E1"/>
		<stop  offset="1" style="stop-color:#4962DC"/>
	</linearGradient>
	<path fill="url(#SVGID_8_)" d="M14.751,83.873c0-0.95-0.758-1.718-1.695-1.718H4.407v-39.05h8.649c0.937,0,1.695-0.769,1.695-1.718
		c0-0.95-0.758-1.719-1.695-1.719H2.713c-0.937,0-1.695,0.769-1.695,1.719v42.487c0,0.949,0.758,1.719,1.695,1.719h10.344
		C13.993,85.592,14.751,84.822,14.751,83.873z"/>
	<linearGradient id="SVGID_9_" gradientUnits="userSpaceOnUse" x1="15.0542" y1="37.2998" x2="116.0537" y2="105.2995">
		<stop  offset="0" style="stop-color:#6B13D3"/>
		<stop  offset="0.3436" style="stop-color:#7A25E1"/>
		<stop  offset="1" style="stop-color:#4962DC"/>
	</linearGradient>
	<path fill="url(#SVGID_9_)" d="M127.83,76.741c0.937,0,1.695-0.768,1.695-1.719c0-0.95-0.758-1.717-1.695-1.717H97.425
		c-0.654-1.516-2.144-2.578-3.879-2.578c-2.34,0-4.237,1.923-4.237,4.295c0,1.761,1.047,3.271,2.542,3.934v10.596H49.964V78.958
		c1.496-0.664,2.544-2.173,2.544-3.936c0-2.373-1.897-4.295-4.237-4.295c-1.736,0-3.226,1.062-3.88,2.578H14.338
		c-0.937,0-1.695,0.768-1.695,1.717c0,0.951,0.758,1.719,1.695,1.719h30.054c0.427,0.988,1.208,1.781,2.183,2.214V91.27
		c0,0.95,0.758,1.718,1.695,1.718h45.276c0.937,0,1.695-0.769,1.695-1.718V78.956c0.976-0.433,1.757-1.227,2.185-2.215H127.83z"/>
	<linearGradient id="SVGID_10_" gradientUnits="userSpaceOnUse" x1="11.7856" y1="42.1538" x2="112.7857" y2="110.1538">
		<stop  offset="0" style="stop-color:#6B13D3"/>
		<stop  offset="0.3436" style="stop-color:#7A25E1"/>
		<stop  offset="1" style="stop-color:#4962DC"/>
	</linearGradient>
	<path fill="url(#SVGID_10_)" d="M63.16,75.016c0-1.426-1.154-2.561-2.559-2.561c-1.407,0-2.542,1.135-2.542,2.561
		s1.136,2.578,2.542,2.578C62.006,77.594,63.16,76.442,63.16,75.016z"/>
	<linearGradient id="SVGID_11_" gradientUnits="userSpaceOnUse" x1="15.0195" y1="37.3506" x2="116.0195" y2="105.3506">
		<stop  offset="0" style="stop-color:#6B13D3"/>
		<stop  offset="0.3436" style="stop-color:#7A25E1"/>
		<stop  offset="1" style="stop-color:#4962DC"/>
	</linearGradient>
	<path fill="url(#SVGID_11_)" d="M73.514,75.016c0-1.426-1.135-2.561-2.542-2.561c-1.407,0-2.542,1.135-2.542,2.561
		s1.135,2.578,2.542,2.578C72.379,77.594,73.514,76.442,73.514,75.016z"/>
	<linearGradient id="SVGID_12_" gradientUnits="userSpaceOnUse" x1="18.2598" y1="32.5488" x2="119.2501" y2="100.5423">
		<stop  offset="0" style="stop-color:#6B13D3"/>
		<stop  offset="0.3436" style="stop-color:#7A25E1"/>
		<stop  offset="1" style="stop-color:#4962DC"/>
	</linearGradient>
	<path fill="url(#SVGID_12_)" d="M83.886,75.016c0-1.426-1.135-2.561-2.542-2.561s-2.542,1.135-2.542,2.561s1.136,2.578,2.542,2.578
		S83.886,76.442,83.886,75.016z"/>
	<linearGradient id="SVGID_13_" gradientUnits="userSpaceOnUse" x1="31.9692" y1="12.1748" x2="132.9692" y2="80.1748">
		<stop  offset="0" style="stop-color:#6B13D3"/>
		<stop  offset="0.3436" style="stop-color:#7A25E1"/>
		<stop  offset="1" style="stop-color:#4962DC"/>
	</linearGradient>
	<path fill="url(#SVGID_13_)" d="M127.831,48.515H97.425c-0.427-0.989-1.208-1.782-2.185-2.215V34.7c0-0.95-0.758-1.718-1.695-1.718
		H74.787c-0.427-0.988-1.208-1.782-2.185-2.215V9.229c0.977-0.434,1.758-1.227,2.185-2.215h21.125c0.937,0,1.694-0.768,1.694-1.718
		c0-0.95-0.758-1.718-1.694-1.718H74.787C74.133,2.062,72.644,1,70.907,1c-1.736,0-3.226,1.062-3.879,2.578H45.904
		c-0.937,0-1.694,0.768-1.694,1.718c0,0.95,0.758,1.718,1.694,1.718h21.124c0.427,0.989,1.208,1.782,2.185,2.215v21.538
		c-0.977,0.433-1.758,1.227-2.185,2.215H48.27c-0.937,0-1.695,0.768-1.695,1.718v11.601c-0.975,0.433-1.756,1.225-2.183,2.214
		H14.338c-0.937,0-1.695,0.769-1.695,1.719c0,0.949,0.758,1.718,1.695,1.718h30.054c0.654,1.515,2.144,2.577,3.88,2.577
		c1.736,0,3.226-1.062,3.879-2.577h37.516c0.655,1.515,2.143,2.577,3.879,2.577c1.736,0,3.226-1.062,3.879-2.577h30.406
		c0.937,0,1.695-0.769,1.695-1.718C129.526,49.284,128.768,48.515,127.831,48.515z M67.028,36.418
		c0.656,1.516,2.144,2.578,3.879,2.578c1.736,0,3.226-1.062,3.88-2.578h17.063v9.881c-0.977,0.433-1.758,1.227-2.185,2.215H52.15
		c-0.427-0.99-1.209-1.784-2.186-2.217v-9.879H67.028z"/>
</g>
</svg>
