<svg xmlns="http://www.w3.org/2000/svg" version="1.1" id="Your_Icon" x="0px" y="0px" width="101px" height="94px" viewBox="0 0 100 94" xml:space="preserve">
  <path fill="#751fdc" d="M100 29.775c0-7.953-3.098-15.431-8.721-21.055C85.656 3.097 78.18 0 70.227 0c-7.613 0-14.785 2.844-20.317 8.02 -5.51-5.075-12.613-7.859-20.148-7.859 -7.953 0-15.43 3.097-21.054 8.721 -11.609 11.608-11.608 30.499 0 42.109l7.581 7.583c-0.757 1.119-1.166 2.438-1.166 3.816 0 1.823 0.709 3.537 1.999 4.825 1.288 1.289 3.001 1.999 4.825 1.999 0.531 0 1.05-0.066 1.554-0.184 -0.117 0.505-0.184 1.023-0.184 1.554 0 1.823 0.71 3.536 2 4.824 1.287 1.29 3.001 2 4.824 2 0.534 0 1.054-0.068 1.56-0.187 -0.517 2.223 0.082 4.653 1.809 6.383 1.289 1.287 3.002 1.998 4.826 1.998 0.531 0 1.052-0.069 1.557-0.188 -0.517 2.221 0.082 4.652 1.811 6.379 1.288 1.289 3.001 1.999 4.826 1.999 1.425 0 2.782-0.438 3.922-1.245 1.104 0.729 2.396 1.121 3.749 1.121 1.825 0 3.538-0.708 4.827-1.996 1.49-1.492 2.146-3.507 1.966-5.458 0.86 0.386 1.803 0.585 2.774 0.585 1.822 0 3.539-0.71 4.826-1.998 1.725-1.725 2.33-4.15 1.819-6.369 0.502 0.115 1.021 0.176 1.548 0.176 1.82 0 3.535-0.711 4.826-1.998 1.288-1.289 1.998-3.004 1.998-4.826 0-0.961-0.196-1.891-0.57-2.743 1.982 0.168 3.984-0.544 5.417-1.974 1.288-1.291 1.998-3.004 1.998-4.826 0-1.57-0.528-3.059-1.498-4.264l7.149-7.149C96.902 45.206 100 37.729 100 29.775zM25.014 65.461c-0.32 0.318-0.688 0.562-1.078 0.766 -0.609 0.319-1.284 0.506-1.992 0.506 -1.16 0-2.249-0.451-3.068-1.271 -0.82-0.819-1.272-1.909-1.272-3.069 0-0.709 0.187-1.384 0.506-1.994 0.203-0.39 0.446-0.756 0.766-1.074l0.835-0.836 6.677-6.678c0.819-0.82 1.909-1.271 3.068-1.271s2.25 0.451 3.07 1.271c1.693 1.692 1.693 4.446 0.002 6.139l-6.679 6.68L25.014 65.461zM33.208 73.654c-0.319 0.32-0.689 0.564-1.08 0.769 -0.61 0.315-1.282 0.503-1.991 0.503 -1.16 0-2.25-0.451-3.068-1.271 -1.37-1.369-1.611-3.426-0.766-5.061 0.199-0.387 0.441-0.757 0.766-1.08l0.833-0.832 9.367-9.367c0.819-0.82 1.91-1.272 3.07-1.272 1.159 0 2.249 0.452 3.068 1.272 0.82 0.819 1.271 1.908 1.271 3.068 0 1.159-0.452 2.25-1.271 3.07L34.04 72.82 33.208 73.654zM41.402 81.848c-0.321 0.321-0.691 0.566-1.083 0.77 -0.61 0.318-1.281 0.504-1.987 0.504 -1.16 0-2.25-0.451-3.07-1.271 -1.368-1.367-1.609-3.422-0.766-5.059 0.199-0.387 0.442-0.758 0.766-1.081l0.833-0.833 6.137-6.135 2.08-2.08 0.368-0.367c0.819-0.82 1.91-1.271 3.068-1.271 1.16 0 2.25 0.451 3.068 1.271 1.692 1.694 1.692 4.449 0.002 6.14L50.449 72.8l-2.08 2.08 -6.137 6.14L41.402 81.848zM50.423 89.212l-0.829 0.829c-0.321 0.32-0.692 0.566-1.083 0.771 -0.609 0.313-1.28 0.5-1.985 0.5 -1.162 0-2.25-0.453-3.07-1.271 -1.368-1.368-1.611-3.421-0.768-5.055 0.199-0.389 0.442-0.762 0.768-1.084l0.83-0.83 6.138-6.137 0.133-0.133c0.723-0.726 1.659-1.14 2.664-1.232 0.137-0.014 0.268-0.039 0.403-0.039 1.16 0 2.251 0.451 3.071 1.271 0.949 0.948 1.345 2.229 1.229 3.473 -0.089 0.973-0.485 1.924-1.229 2.666l-0.133 0.134L50.423 89.212zM57.268 89.919c-0.818 0.819-1.908 1.269-3.07 1.269 -0.641 0-1.258-0.149-1.821-0.414l5.746-5.746C58.863 86.631 58.589 88.596 57.268 89.919zM81.874 65.312c-0.821 0.818-1.91 1.271-3.069 1.271 -1.16 0-2.25-0.452-3.068-1.271l-16.502-16.5c-0.484-0.485-1.271-0.486-1.754-0.002l-0.299 0.297c-0.234 0.232-0.365 0.548-0.365 0.879 0 0.329 0.131 0.645 0.363 0.879l17.85 17.849c0.82 0.82 1.271 1.911 1.271 3.07s-0.451 2.251-1.271 3.069c-0.82 0.819-1.909 1.271-3.069 1.271 -1.159 0-2.249-0.452-3.067-1.271L51.04 56.684C50.807 56.451 50.491 56 50.161 56c0 0-0.001 0-0.002 0 -0.329 0-0.646 0.453-0.878 0.688l-0.297 0.459c-0.482 0.485-0.481 1.351 0.002 1.834l17.849 17.89c1.69 1.69 1.69 4.466 0 6.159 -0.819 0.818-1.91 1.279-3.069 1.279 -1.16 0-2.248-0.447-3.066-1.267l-0.715-0.714c0.939-2.439 0.433-5.316-1.533-7.283 -1.29-1.29-3.004-1.999-4.827-1.999 -0.046 0-0.093 0.007-0.14 0.009 1.699-2.642 1.396-6.207-0.912-8.519 -1.288-1.288-3.001-1.998-4.824-1.998 -0.325 0-0.647 0.03-0.965 0.075 0.246-0.709 0.38-1.457 0.38-2.23 0-1.822-0.711-3.537-1.999-4.824 -1.289-1.289-3.002-2-4.825-2 -1.485 0-2.894 0.479-4.062 1.35 0.007-1.758-0.656-3.518-1.994-4.856 -1.29-1.288-3.003-1.998-4.826-1.998 -1.822 0-3.537 0.71-4.825 1.998l-6.677 6.676 -7.492-7.495C-0.179 38.593-0.179 21.278 10.461 10.638c5.156-5.155 12.009-7.994 19.298-7.994 6.862 0 13.333 2.523 18.37 7.12L25.833 32.063c-2.661 2.661-2.67 6.982-0.02 9.631l1.182 1.181c1.273 1.273 2.978 1.974 4.801 1.974 1.823 0 3.537-0.71 4.824-1.998l14.467-14.465 30.787 30.788c0.819 0.819 1.271 1.908 1.271 3.068C83.146 63.4 82.693 64.493 81.874 65.312zM82.521 56.076L52.064 25.651c-0.143-0.141-0.312-0.229-0.489-0.288 -0.126-0.042-0.257-0.076-0.39-0.076 -0.316 0-0.635 0.122-0.877 0.363l-0.978 0.979L34.864 41.095c-0.819 0.819-1.908 1.271-3.068 1.271 -1.177 0-2.229-0.431-3.045-1.247l-1.181-1.181c-1.682-1.681-1.672-4.426 0.021-6.119L48.695 12.71l2.235-2.234c0.079-0.081 0.164-0.156 0.245-0.235 5.128-5.003 11.875-7.759 19.052-7.759 7.289 0 14.145 2.839 19.297 7.994 5.156 5.155 7.994 12.008 7.994 19.298s-2.838 14.143-7.994 19.298L82.521 56.076z"/>
</svg>
