<svg xmlns="http://www.w3.org/2000/svg" xmlns:xlink="http://www.w3.org/1999/xlink" version="1.1" id="Layer_1" x="0px" y="0px" width="17.007px" height="15px" viewBox="0 0 17.00 15" enable-background="new 0 0 17.00 15" xml:space="preserve">
  <path fill="#FFFFFF" d="M16.586 8.473c0.029-0.028 0.055-0.057 0.079-0.083 0.013-0.016 0.024-0.03 0.037-0.047 0.007-0.008 0.012-0.015 0.019-0.023C16.896 8.09 16.999 7.807 17 7.499c-0.001-0.307-0.104-0.589-0.279-0.819 -0.008-0.01-0.016-0.021-0.023-0.031 -0.011-0.012-0.021-0.024-0.031-0.036 -0.025-0.029-0.051-0.059-0.081-0.088l-6.293-6.121c-0.554-0.539-1.45-0.539-2.004 0 -0.553 0.538-0.553 1.409 0 1.949l3.71 3.654H2.004C0.016 6.006 0 6.739 0 7.5c0 0.762-0.038 1.506 2.004 1.506h9.994l-3.71 3.641c-0.553 0.54-0.553 1.41 0 1.95 0.554 0.537 1.451 0.537 2.004 0l6.293-6.122C16.585 8.474 16.586 8.473 16.586 8.473z"/>
</svg>
