<?xml version="1.0" encoding="utf-8"?>
<!-- Generator: Adobe Illustrator 15.0.2, SVG Export Plug-In . SVG Version: 6.00 Build 0)  -->
<!DOCTYPE svg PUBLIC "-//W3C//DTD SVG 1.1//EN" "http://www.w3.org/Graphics/SVG/1.1/DTD/svg11.dtd">
<svg version="1.1" id="Layer_1" xmlns="http://www.w3.org/2000/svg" xmlns:xlink="http://www.w3.org/1999/xlink" x="0px" y="0px"
	 width="107.25px" height="95.25px" viewBox="0 0 107.25 95.25" enable-background="new 0 0 107.25 95.25" xml:space="preserve">
<g>
	<linearGradient id="SVGID_1_" gradientUnits="userSpaceOnUse" x1="34.5068" y1="-18.333" x2="123.8484" y2="56.5072">
		<stop  offset="0" style="stop-color:#6B13D3"/>
		<stop  offset="0.3436" style="stop-color:#7A25E1"/>
		<stop  offset="1" style="stop-color:#4962DC"/>
	</linearGradient>
	<path fill="url(#SVGID_1_)" d="M101.742,35.444c-1.398,0-2.526,1.136-2.526,2.545c0,1.407,1.128,2.544,2.526,2.544
		c1.397,0,2.525-1.137,2.525-2.544C104.267,36.58,103.14,35.444,101.742,35.444z"/>
	<linearGradient id="SVGID_2_" gradientUnits="userSpaceOnUse" x1="44.5332" y1="-30.2881" x2="133.8662" y2="44.5449">
		<stop  offset="0" style="stop-color:#6B13D3"/>
		<stop  offset="0.3436" style="stop-color:#7A25E1"/>
		<stop  offset="1" style="stop-color:#4962DC"/>
	</linearGradient>
	<path fill="url(#SVGID_2_)" d="M101.742,15.091c-1.398,0-2.526,1.136-2.526,2.544s1.128,2.544,2.526,2.544
		c1.397,0,2.525-1.136,2.525-2.544S103.14,15.091,101.742,15.091z"/>
	<linearGradient id="SVGID_3_" gradientUnits="userSpaceOnUse" x1="39.5293" y1="-24.3027" x2="128.8537" y2="50.5231">
		<stop  offset="0" style="stop-color:#6B13D3"/>
		<stop  offset="0.3436" style="stop-color:#7A25E1"/>
		<stop  offset="1" style="stop-color:#4962DC"/>
	</linearGradient>
	<path fill="url(#SVGID_3_)" d="M101.742,25.268c-1.398,0-2.526,1.136-2.526,2.545c0,1.407,1.128,2.544,2.526,2.544
		c1.397,0,2.525-1.137,2.525-2.544C104.267,26.403,103.14,25.268,101.742,25.268z"/>
	<linearGradient id="SVGID_4_" gradientUnits="userSpaceOnUse" x1="29.4971" y1="-12.353" x2="118.8387" y2="62.4872">
		<stop  offset="0" style="stop-color:#6B13D3"/>
		<stop  offset="0.3436" style="stop-color:#7A25E1"/>
		<stop  offset="1" style="stop-color:#4962DC"/>
	</linearGradient>
	<path fill="url(#SVGID_4_)" d="M101.742,45.621c-1.398,0-2.526,1.137-2.526,2.544c0,1.408,1.128,2.545,2.526,2.545
		c1.397,0,2.525-1.137,2.525-2.545C104.267,46.758,103.14,45.621,101.742,45.621z"/>
	<linearGradient id="SVGID_5_" gradientUnits="userSpaceOnUse" x1="24.4873" y1="-6.373" x2="113.8289" y2="68.4672">
		<stop  offset="0" style="stop-color:#6B13D3"/>
		<stop  offset="0.3436" style="stop-color:#7A25E1"/>
		<stop  offset="1" style="stop-color:#4962DC"/>
	</linearGradient>
	<path fill="url(#SVGID_5_)" d="M101.742,55.798c-1.398,0-2.526,1.137-2.526,2.544c0,1.408,1.128,2.545,2.526,2.545
		c1.397,0,2.525-1.137,2.525-2.545C104.267,56.935,103.14,55.798,101.742,55.798z"/>
	<linearGradient id="SVGID_6_" gradientUnits="userSpaceOnUse" x1="19.4771" y1="-0.3936" x2="108.8187" y2="74.4467">
		<stop  offset="0" style="stop-color:#6B13D3"/>
		<stop  offset="0.3436" style="stop-color:#7A25E1"/>
		<stop  offset="1" style="stop-color:#4962DC"/>
	</linearGradient>
	<path fill="url(#SVGID_6_)" d="M101.742,65.975c-1.398,0-2.526,1.137-2.526,2.544c0,1.409,1.128,2.544,2.526,2.544
		c1.397,0,2.525-1.135,2.525-2.544C104.267,67.111,103.14,65.975,101.742,65.975z"/>
	<linearGradient id="SVGID_7_" gradientUnits="userSpaceOnUse" x1="23.3643" y1="-5.0176" x2="112.6973" y2="69.8154">
		<stop  offset="0" style="stop-color:#6B13D3"/>
		<stop  offset="0.3436" style="stop-color:#7A25E1"/>
		<stop  offset="1" style="stop-color:#4962DC"/>
	</linearGradient>
	<path fill="url(#SVGID_7_)" d="M51.777,23.571v53.72c0,0.938,0.753,1.696,1.684,1.696s1.684-0.759,1.684-1.696V23.573
		c1.486-0.654,2.527-2.144,2.527-3.883c0-0.797-0.231-1.533-0.612-2.172c6.332-6.003,20.422-9.449,40.559-9.858
		c0.375,1.956,2.078,3.434,4.129,3.434c2.325,0,4.209-1.898,4.209-4.24s-1.884-4.24-4.209-4.24c-1.345,0-2.529,0.647-3.3,1.637
		C82.002,4.514,62.735,6.86,54.238,15.529c-0.253-0.048-0.509-0.079-0.776-0.079c-2.325,0-4.209,1.897-4.209,4.24
		C49.253,21.428,50.292,22.917,51.777,23.571z"/>
	<linearGradient id="SVGID_8_" gradientUnits="userSpaceOnUse" x1="-0.7646" y1="23.7866" x2="88.568" y2="98.6193">
		<stop  offset="0" style="stop-color:#6B13D3"/>
		<stop  offset="0.3436" style="stop-color:#7A25E1"/>
		<stop  offset="1" style="stop-color:#4962DC"/>
	</linearGradient>
	<path fill="url(#SVGID_8_)" d="M101.747,74.457c-1.748,0-3.246,1.073-3.882,2.601c-12.173,0.321-33.845,2.38-44.404,12.484
		c-6.858-6.562-18.408-9.723-29.002-11.228c-0.477-1.815-2.101-3.158-4.053-3.158c-1.628,0-3.023,0.94-3.724,2.304
		c-3.726-0.295-7.115-0.418-9.821-0.449V9.802c0.955-0.421,1.721-1.189,2.149-2.146c15.551,0.291,27.699,2.374,35.272,6.075
		c0.835,0.409,1.843,0.059,2.249-0.785c0.406-0.843,0.058-1.856-0.779-2.266c-8.129-3.974-20.468-6.127-36.7-6.418
		C8.411,2.742,6.918,1.68,5.178,1.68c-2.325,0-4.209,1.897-4.209,4.239c0,1.738,1.04,3.229,2.526,3.883v68.896
		c0,0.938,0.753,1.696,1.683,1.696c3.922,0,7.687,0.154,11.284,0.438c0.585,1.632,2.123,2.805,3.944,2.805
		c1.498,0,2.803-0.793,3.55-1.979c13.23,1.905,23.305,5.892,28.252,11.447c0.319,0.357,0.774,0.563,1.253,0.563
		s0.934-0.206,1.253-0.563c6.679-7.498,22.676-12.146,43.207-12.659c0.661,1.467,2.121,2.492,3.826,2.492
		c2.325,0,4.209-1.898,4.209-4.24S104.072,74.457,101.747,74.457z"/>
</g>
</svg>
