<?xml version="1.0" encoding="utf-8"?>
<!-- Generated by IcoMoon.io -->
<!DOCTYPE svg PUBLIC "-//W3C//DTD SVG 1.1//EN" "http://www.w3.org/Graphics/SVG/1.1/DTD/svg11.dtd">
<svg version="1.1" xmlns="http://www.w3.org/2000/svg" xmlns:xlink="http://www.w3.org/1999/xlink" width="9" height="32" viewBox="0 0 9 32">
<g>
</g>
	<path d="M8.69 0.591c-0.005-0.022-0.012-0.042-0.018-0.063-0.008-0.025-0.013-0.051-0.023-0.075s-0.025-0.047-0.037-0.071c-0.011-0.019-0.018-0.038-0.031-0.056-0.053-0.080-0.122-0.149-0.203-0.203-0.018-0.012-0.038-0.021-0.056-0.031-0.023-0.012-0.045-0.027-0.070-0.037s-0.050-0.016-0.074-0.023c-0.021-0.006-0.041-0.014-0.063-0.018-0.047-0.009-0.095-0.014-0.144-0.014h-3.297c-0.405 0-0.733 0.329-0.733 0.735s0.328 0.735 0.733 0.735h1.528l-1.247 1.25c-0.025 0.019-0.054 0.029-0.076 0.051l-3.413 3.423v-1.533c0-0.406-0.328-0.735-0.733-0.735-0.404 0-0.732 0.329-0.732 0.735v3.307c0 0.048 0.005 0.096 0.014 0.144 0.004 0.022 0.012 0.042 0.019 0.062 0.007 0.026 0.013 0.051 0.023 0.075 0.010 0.025 0.025 0.048 0.037 0.071 0.010 0.018 0.018 0.038 0.030 0.056 0.054 0.080 0.122 0.149 0.203 0.203 0.018 0.012 0.038 0.020 0.057 0.031 0.023 0.012 0.045 0.027 0.069 0.036 0.024 0.011 0.050 0.016 0.074 0.023 0.021 0.007 0.041 0.014 0.063 0.019 0.048 0.009 0.095 0.014 0.143 0.014h3.298c0.405 0 0.733-0.329 0.733-0.735s-0.328-0.735-0.733-0.735h-1.528l1.247-1.25c0.025-0.019 0.054-0.029 0.076-0.051l3.413-3.423v1.533c0 0.405 0.328 0.735 0.733 0.735s0.733-0.329 0.733-0.734v-3.308c0-0.048-0.005-0.096-0.014-0.144z" fill="#d5d5d5"></path>
	<path d="M8.69 23.887c-0.005-0.022-0.012-0.043-0.018-0.063-0.008-0.026-0.013-0.051-0.023-0.075s-0.025-0.047-0.037-0.070c-0.011-0.019-0.018-0.038-0.031-0.056-0.053-0.081-0.122-0.15-0.203-0.204-0.018-0.012-0.038-0.020-0.056-0.031-0.023-0.012-0.045-0.027-0.070-0.037s-0.050-0.015-0.074-0.023c-0.021-0.006-0.041-0.014-0.063-0.018-0.047-0.009-0.095-0.014-0.143-0.014h-3.297c-0.404 0-0.733 0.329-0.733 0.735s0.328 0.735 0.733 0.735h1.528l-1.248 1.251c-0.025 0.019-0.053 0.028-0.075 0.051l-3.412 3.423v-1.532c0-0.406-0.329-0.735-0.733-0.735-0.405-0.001-0.733 0.328-0.733 0.734v3.307c0 0.048 0.005 0.096 0.014 0.144 0.004 0.022 0.012 0.042 0.019 0.062 0.007 0.026 0.013 0.051 0.023 0.075 0.010 0.025 0.025 0.048 0.037 0.071 0.010 0.018 0.018 0.038 0.030 0.056 0.054 0.080 0.122 0.149 0.203 0.203 0.018 0.012 0.038 0.020 0.056 0.031 0.023 0.012 0.045 0.027 0.070 0.036 0.024 0.011 0.050 0.016 0.075 0.023 0.021 0.007 0.041 0.014 0.062 0.019 0.048 0.009 0.096 0.014 0.144 0.014h3.297c0.404 0 0.733-0.329 0.733-0.735s-0.329-0.735-0.733-0.735h-1.528l1.247-1.25c0.025-0.019 0.054-0.029 0.077-0.051l3.413-3.423v1.533c0 0.405 0.328 0.735 0.733 0.735s0.733-0.33 0.733-0.735v-3.308c-0.001-0.047-0.006-0.096-0.015-0.143z" fill="#a2a1a1"></path>
</svg>
