<?xml version="1.0" encoding="utf-8"?>
<!-- Generator: Adobe Illustrator 18.1.1, SVG Export Plug-In . SVG Version: 6.00 Build 0)  -->
<svg version="1.1" id="Layer_1" xmlns="http://www.w3.org/2000/svg" xmlns:xlink="http://www.w3.org/1999/xlink" x="0px" y="0px"
	 viewBox="0 407 612 228.1" enable-background="new 0 407 612 228.1" xml:space="preserve">
<g>
	<polygon fill="#FFFFFF" points="224.6,632.5 261.9,632.5 261.9,479 262.7,479 362.4,632.5 402.2,632.5 402.2,423.6 365.9,423.6 
		365.9,577.8 365.9,577.8 265.4,423.6 224.6,423.6 	"/>
	<path fill="#FFFFFF" d="M108.4,420.1C48.6,420.1,0,468.5,0,527.6C0,587.4,48.6,636,108.4,635.1c58.9,0,107.5-47.7,107.5-107.5
		C215.9,468.7,168.2,420.1,108.4,420.1z M107.5,608.2c-43.4-0.9-79.7-36.4-79.7-79.7c0-44.2,35.5-79.7,79.7-79.7
		c44.2,0,79.7,35.5,79.7,79.7C187.2,572.7,151.7,608.2,107.5,608.2z"/>
	<polygon fill="#FFFFFF" points="76.2,407 132.7,532 84.1,544 	"/>
	<path fill="#FFFFFF" d="M611.1,602.1H509.7c6.1-18.2,31.3-31.3,55.4-47.7c23.4-16.4,46.8-37.2,46.8-70.3
		c0-26.9-16.4-64.2-66.8-64.2c-46.8,0-72,34.6-72,80.6h33.7c0.9-29.5,8.7-52.1,35.5-52.1c29.5,0,35.5,21.7,35.5,37.2
		c-0.9,32.2-35.5,48.6-62.4,68.5c-27.8,19.1-46,45.1-46,78.8h142.1v-31.3h-0.5V602.1z"/>
	<rect x="416.2" y="592.6" fill="#FFFFFF" width="41.6" height="39.9"/>
</g>
</svg>
