<?xml version="1.0" encoding="utf-8"?>
<!-- Generator: Adobe Illustrator 15.0.2, SVG Export Plug-In . SVG Version: 6.00 Build 0)  -->
<!DOCTYPE svg PUBLIC "-//W3C//DTD SVG 1.1//EN" "http://www.w3.org/Graphics/SVG/1.1/DTD/svg11.dtd">
<svg version="1.1" id="Layer_1" xmlns="http://www.w3.org/2000/svg" xmlns:xlink="http://www.w3.org/1999/xlink" x="0px" y="0px"
	 width="108px" height="136px" viewBox="0 0 108 136" enable-background="new 0 0 108 136" xml:space="preserve">
<g>
	<linearGradient id="SVGID_1_" gradientUnits="userSpaceOnUse" x1="40.3079" y1="-20.8916" x2="130.8079" y2="94.1084">
		<stop  offset="0" style="stop-color:#6B13D3"/>
		<stop  offset="0.5399" style="stop-color:#7A25E1"/>
		<stop  offset="1" style="stop-color:#4962DC"/>
	</linearGradient>
	<path fill="url(#SVGID_1_)" d="M63.01,11.953c0.46,0.341,1.006,0.511,1.535,0.511c0.785,0,1.553-0.358,2.048-1.022
		c0.853-1.125,0.615-2.728-0.512-3.58c-1.126-0.833-2.729-0.612-3.583,0.513C61.646,9.5,61.884,11.101,63.01,11.953z"/>
	<linearGradient id="SVGID_2_" gradientUnits="userSpaceOnUse" x1="16.1223" y1="-1.8584" x2="106.6223" y2="113.1416">
		<stop  offset="0" style="stop-color:#6B13D3"/>
		<stop  offset="0.5399" style="stop-color:#7A25E1"/>
		<stop  offset="1" style="stop-color:#4962DC"/>
	</linearGradient>
	<path fill="url(#SVGID_2_)" d="M27.004,14.526c0.683,0,1.367-0.273,1.878-0.801c0.955-1.021,0.905-2.641-0.12-3.613
		c-1.023-0.972-2.645-0.92-3.618,0.104c-0.972,1.022-0.922,2.642,0.103,3.611C25.743,14.305,26.374,14.526,27.004,14.526z"/>
	<linearGradient id="SVGID_3_" gradientUnits="userSpaceOnUse" x1="31.2612" y1="-13.7725" x2="121.7612" y2="101.2275">
		<stop  offset="0" style="stop-color:#6B13D3"/>
		<stop  offset="0.5399" style="stop-color:#7A25E1"/>
		<stop  offset="1" style="stop-color:#4962DC"/>
	</linearGradient>
	<path fill="url(#SVGID_3_)" d="M45.503,6.721c0,0.019-1.417,0.069,0,0.019c1.415-0.069,2.508-1.262,2.439-2.677
		c-0.068-1.415-1.263-2.504-2.663-2.437c-1.415,0.068-2.508,1.26-2.44,2.674C42.892,5.699,44.086,6.79,45.503,6.721z"/>
	<linearGradient id="SVGID_4_" gradientUnits="userSpaceOnUse" x1="24.0811" y1="-8.1221" x2="114.5811" y2="106.8779">
		<stop  offset="0" style="stop-color:#6B13D3"/>
		<stop  offset="0.5399" style="stop-color:#7A25E1"/>
		<stop  offset="1" style="stop-color:#4962DC"/>
	</linearGradient>
	<path fill="url(#SVGID_4_)" d="M35.418,8.851c0.323,0,0.665-0.068,0.971-0.203c1.315-0.529,1.946-2.011,1.4-3.323
		c-0.528-1.313-2.03-1.944-3.328-1.398c-1.313,0.527-1.945,2.01-1.416,3.324C33.455,8.238,34.411,8.851,35.418,8.851z"/>
	<linearGradient id="SVGID_5_" gradientUnits="userSpaceOnUse" x1="36.9739" y1="-18.2676" x2="127.4739" y2="96.7324">
		<stop  offset="0" style="stop-color:#6B13D3"/>
		<stop  offset="0.5399" style="stop-color:#7A25E1"/>
		<stop  offset="1" style="stop-color:#4962DC"/>
	</linearGradient>
	<path fill="url(#SVGID_5_)" d="M54.785,7.728c0.238,0.068,0.479,0.102,0.717,0.102c1.11,0,2.133-0.716,2.458-1.841
		c0.392-1.346-0.393-2.777-1.741-3.17c-1.365-0.391-2.781,0.393-3.173,1.739C52.652,5.92,53.437,7.335,54.785,7.728z"/>
	<linearGradient id="SVGID_6_" gradientUnits="userSpaceOnUse" x1="44.5422" y1="-24.2236" x2="135.0423" y2="90.7764">
		<stop  offset="0" style="stop-color:#6B13D3"/>
		<stop  offset="0.5399" style="stop-color:#7A25E1"/>
		<stop  offset="1" style="stop-color:#4962DC"/>
	</linearGradient>
	<path fill="url(#SVGID_6_)" d="M80.126,24.394c0.255,0.085,0.512,0.12,0.767,0.12c1.075,0,2.1-0.699,2.441-1.789
		c0.408-1.347-0.325-2.779-1.673-3.204c-0.017,0-0.017,0-0.017,0c-1.348-0.426-2.781,0.322-3.208,1.686
		C78.026,22.553,78.778,23.986,80.126,24.394z"/>
	<linearGradient id="SVGID_7_" gradientUnits="userSpaceOnUse" x1="50.6733" y1="-29.0488" x2="141.1734" y2="85.9512">
		<stop  offset="0" style="stop-color:#6B13D3"/>
		<stop  offset="0.5399" style="stop-color:#7A25E1"/>
		<stop  offset="1" style="stop-color:#4962DC"/>
	</linearGradient>
	<path fill="url(#SVGID_7_)" d="M90.994,24.752c0.171,0,0.342-0.018,0.53-0.069c1.381-0.29,2.27-1.636,1.979-3.016
		c-0.29-1.381-1.638-2.267-3.038-1.977c-1.381,0.273-2.27,1.636-1.979,3.018C88.743,23.917,89.801,24.752,90.994,24.752z"/>
	<linearGradient id="SVGID_8_" gradientUnits="userSpaceOnUse" x1="41.8022" y1="-22.0679" x2="132.3023" y2="92.9321">
		<stop  offset="0" style="stop-color:#6B13D3"/>
		<stop  offset="0.5399" style="stop-color:#7A25E1"/>
		<stop  offset="1" style="stop-color:#4962DC"/>
	</linearGradient>
	<path fill="url(#SVGID_8_)" d="M72.259,19.196c0.717,0,1.417-0.306,1.928-0.869c0.921-1.073,0.82-2.676-0.238-3.613
		c-1.058-0.937-2.68-0.836-3.618,0.238c-0.921,1.057-0.82,2.675,0.238,3.596C71.064,18.975,71.66,19.196,72.259,19.196z"/>
	<linearGradient id="SVGID_9_" gradientUnits="userSpaceOnUse" x1="9.2197" y1="3.5732" x2="99.7197" y2="118.5732">
		<stop  offset="0" style="stop-color:#6B13D3"/>
		<stop  offset="0.5399" style="stop-color:#7A25E1"/>
		<stop  offset="1" style="stop-color:#4962DC"/>
	</linearGradient>
	<path fill="url(#SVGID_9_)" d="M45.291,92.111L63.97,80.488c0.19,0.136,0.393,0.251,0.605,0.356v11.818
		c-1.405,0.696-2.38,2.13-2.38,3.803c0,2.354,1.91,4.26,4.266,4.26c2.356,0,4.266-1.907,4.266-4.26c0-0.245-0.032-0.481-0.072-0.714
		l24.26-15.095c0.652,0.403,1.413,0.646,2.234,0.646c2.356,0,4.266-1.907,4.266-4.261c0-2.353-1.91-4.26-4.266-4.26
		c-2.356,0-4.266,1.908-4.266,4.26c0,0.28,0.032,0.549,0.082,0.814L68.786,92.898c-0.249-0.162-0.517-0.293-0.798-0.401V81.009
		c1.6-0.614,2.74-2.153,2.74-3.968c0-2.353-1.91-4.26-4.266-4.26c-2.356,0-4.266,1.908-4.266,4.26c0,0.172,0.031,0.336,0.052,0.503
		L43.485,89.219c-0.8,0.498-1.043,1.549-0.545,2.348C43.438,92.365,44.49,92.611,45.291,92.111z"/>
	<linearGradient id="SVGID_10_" gradientUnits="userSpaceOnUse" x1="7.4207" y1="4.9893" x2="97.9207" y2="119.9893">
		<stop  offset="0" style="stop-color:#6B13D3"/>
		<stop  offset="0.5399" style="stop-color:#7A25E1"/>
		<stop  offset="1" style="stop-color:#4962DC"/>
	</linearGradient>
	<path fill="url(#SVGID_10_)" d="M97.155,116.456c-1.417,0-2.56,1.142-2.56,2.557c0,1.415,1.143,2.556,2.56,2.556
		c1.4,0,2.56-1.142,2.56-2.556C99.714,117.598,98.555,116.456,97.155,116.456z"/>
	<linearGradient id="SVGID_11_" gradientUnits="userSpaceOnUse" x1="12.3901" y1="1.0781" x2="102.8902" y2="116.0781">
		<stop  offset="0" style="stop-color:#6B13D3"/>
		<stop  offset="0.5399" style="stop-color:#7A25E1"/>
		<stop  offset="1" style="stop-color:#4962DC"/>
	</linearGradient>
	<path fill="url(#SVGID_11_)" d="M97.155,106.231c-1.417,0-2.56,1.142-2.56,2.556s1.143,2.556,2.56,2.556
		c1.4,0,2.56-1.142,2.56-2.556S98.555,106.231,97.155,106.231z"/>
	<linearGradient id="SVGID_12_" gradientUnits="userSpaceOnUse" x1="17.3594" y1="-2.832" x2="107.8594" y2="112.168">
		<stop  offset="0" style="stop-color:#6B13D3"/>
		<stop  offset="0.5399" style="stop-color:#7A25E1"/>
		<stop  offset="1" style="stop-color:#4962DC"/>
	</linearGradient>
	<path fill="url(#SVGID_12_)" d="M97.155,96.006c-1.417,0-2.56,1.142-2.56,2.556c0,1.415,1.143,2.557,2.56,2.557
		c1.4,0,2.56-1.142,2.56-2.557C99.714,97.148,98.555,96.006,97.155,96.006z"/>
	<linearGradient id="SVGID_13_" gradientUnits="userSpaceOnUse" x1="22.3286" y1="-6.7432" x2="112.8286" y2="108.2568">
		<stop  offset="0" style="stop-color:#6B13D3"/>
		<stop  offset="0.5399" style="stop-color:#7A25E1"/>
		<stop  offset="1" style="stop-color:#4962DC"/>
	</linearGradient>
	<path fill="url(#SVGID_13_)" d="M97.155,85.78c-1.417,0-2.56,1.142-2.56,2.556c0,1.415,1.143,2.557,2.56,2.557
		c1.4,0,2.56-1.142,2.56-2.557C99.714,86.922,98.555,85.78,97.155,85.78z"/>
	<linearGradient id="SVGID_14_" gradientUnits="userSpaceOnUse" x1="7.928" y1="4.5898" x2="98.428" y2="119.5898">
		<stop  offset="0" style="stop-color:#6B13D3"/>
		<stop  offset="0.5399" style="stop-color:#7A25E1"/>
		<stop  offset="1" style="stop-color:#4962DC"/>
	</linearGradient>
	<path fill="url(#SVGID_14_)" d="M22.058,26.802c2.356,0,4.266-1.906,4.266-4.26c0-2.108-1.537-3.846-3.548-4.189
		c-0.025-0.007-0.047-0.018-0.072-0.025c-0.468-0.122-0.935-0.098-1.365,0.025c-2.013,0.343-3.548,2.082-3.548,4.189
		C17.792,24.896,19.702,26.802,22.058,26.802z"/>
	<linearGradient id="SVGID_15_" gradientUnits="userSpaceOnUse" x1="59.1887" y1="-35.75" x2="149.6887" y2="79.25">
		<stop  offset="0" style="stop-color:#6B13D3"/>
		<stop  offset="0.5399" style="stop-color:#7A25E1"/>
		<stop  offset="1" style="stop-color:#4962DC"/>
	</linearGradient>
	<path fill="url(#SVGID_15_)" d="M101.652,22.47c2.356,0,4.266-1.907,4.266-4.26c0-2.354-1.91-4.261-4.266-4.261
		s-4.266,1.907-4.266,4.261C97.386,20.562,99.296,22.47,101.652,22.47z"/>
	<linearGradient id="SVGID_16_" gradientUnits="userSpaceOnUse" x1="-24.9597" y1="30.4712" x2="65.5403" y2="145.4712">
		<stop  offset="0" style="stop-color:#6B13D3"/>
		<stop  offset="0.5399" style="stop-color:#7A25E1"/>
		<stop  offset="1" style="stop-color:#4962DC"/>
	</linearGradient>
	<path fill="url(#SVGID_16_)" d="M6.197,134.542c1.748,0,3.248-1.054,3.906-2.556h83.14c0.658,1.502,2.158,2.556,3.906,2.556
		c2.356,0,4.266-1.908,4.266-4.261s-1.91-4.26-4.266-4.26c-1.748,0-3.248,1.051-3.906,2.556h-83.14
		c-0.385-0.877-1.062-1.584-1.901-2.036l4.504-57.464c1.618-0.605,2.776-2.152,2.776-3.979c0-1.589-0.882-2.96-2.175-3.691
		l1.862-23.744c0-1.093,2.748-2.746,6.889-2.746c4.142,0,6.892,1.652,6.897,2.878l6.072,77.419
		c-1.307,0.727-2.201,2.105-2.201,3.706c0,2.354,1.91,4.26,4.266,4.26c2.356,0,4.266-1.907,4.266-4.26
		c0-1.886-1.235-3.467-2.933-4.028l-6.063-77.23c0-3.509-4.431-6.155-10.305-6.155c-5.873,0-10.302,2.646-10.297,6.022L9.915,61.061
		c-1.715,0.553-2.964,2.14-2.964,4.037c0,1.661,0.961,3.086,2.351,3.789l-4.502,57.387c-1.665,0.581-2.868,2.145-2.868,4.007
		C1.931,132.634,3.841,134.542,6.197,134.542z"/>
</g>
</svg>
