<svg xmlns="http://www.w3.org/2000/svg" xmlns:xlink="http://www.w3.org/1999/xlink" version="1.1" id="Layer_1" x="0px" y="0px" width="26.997px" height="23.996px" viewBox="0 0 26.997 23.996" enable-background="new 0 0 26.997 23.996" xml:space="preserve">
  <path fill="#cad1d9" d="M15.875 11.981h4.474c0-5.195-3.884-9.352-8.854-9.352 -4.971 0-8.885 4.157-8.885 9.352 0 5.196 3.914 9.32 8.885 9.32 1.615 0 3.138-0.455 4.474-1.234l1.148 2.402c-1.678 0.975-3.603 1.526-5.654 1.526C5.126 23.996 0 18.638 0 11.981 0 5.356 5.126 0 11.463 0c6.369 0 11.495 5.356 11.495 11.981h4.039L21.436 18.8 15.875 11.981z"/>
</svg>

