<?xml version="1.0" encoding="utf-8"?>
<!-- Generator: Adobe Illustrator 15.0.2, SVG Export Plug-In . SVG Version: 6.00 Build 0)  -->
<!DOCTYPE svg PUBLIC "-//W3C//DTD SVG 1.1//EN" "http://www.w3.org/Graphics/SVG/1.1/DTD/svg11.dtd">
<svg version="1.1" id="Layer_1" xmlns="http://www.w3.org/2000/svg" xmlns:xlink="http://www.w3.org/1999/xlink" x="0px" y="0px"
	 width="108.25px" height="125.25px" viewBox="0 0 108.25 125.25" enable-background="new 0 0 108.25 125.25" xml:space="preserve">
<g>
	<linearGradient id="SVGID_1_" gradientUnits="userSpaceOnUse" x1="19.5044" y1="44.4258" x2="92.8379" y2="119.7588">
		<stop  offset="0" style="stop-color:#6B13D3"/>
		<stop  offset="0.3436" style="stop-color:#7A25E1"/>
		<stop  offset="1" style="stop-color:#4962DC"/>
	</linearGradient>
	<path fill="url(#SVGID_1_)" d="M31.68,50.14c-0.868-0.348-1.867,0.073-2.217,0.95l-4.424,11.059
		c-0.315,0.786-0.003,1.685,0.731,2.109l11.458,6.62c0.267,0.153,0.562,0.228,0.851,0.228c0.508,0,1.008-0.226,1.341-0.649
		l7.379-9.353c0.583-0.74,0.457-1.812-0.283-2.395c-0.74-0.583-1.812-0.454-2.396,0.283l-6.465,8.195l-8.9-5.143l3.876-9.688
		C32.981,51.481,32.555,50.489,31.68,50.14z"/>
	<linearGradient id="SVGID_2_" gradientUnits="userSpaceOnUse" x1="44.5654" y1="20.0298" x2="117.8989" y2="95.3628">
		<stop  offset="0" style="stop-color:#6B13D3"/>
		<stop  offset="0.3436" style="stop-color:#7A25E1"/>
		<stop  offset="1" style="stop-color:#4962DC"/>
	</linearGradient>
	<path fill="url(#SVGID_2_)" d="M51.51,57.177c0.148,0,0.296-0.019,0.441-0.059c0.437-0.116,0.81-0.401,1.036-0.794l20.407-35.297
		c0.146,0.017,0.29,0.045,0.441,0.045c2.355,0,4.264-1.908,4.264-4.262s-1.909-4.262-4.264-4.262c-0.961,0-1.838,0.329-2.551,0.864
		L59.2,6.423c0.039-0.228,0.07-0.457,0.07-0.694c0-2.354-1.909-4.262-4.265-4.262c-2.355,0-4.264,1.908-4.264,4.262
		c0,0.803,0.235,1.545,0.622,2.186L30.789,43.499c-0.47,0.814-0.191,1.856,0.623,2.327l19.244,11.122
		C50.919,57.099,51.214,57.177,51.51,57.177z M54.15,9.904c0.277,0.057,0.563,0.087,0.854,0.087c0.865,0,1.666-0.261,2.337-0.703
		l12.272,7.098c-0.015,0.141-0.043,0.279-0.043,0.424c0,0.953,0.325,1.826,0.854,2.536L50.887,53.143l-16.29-9.414L54.15,9.904z"/>
	<linearGradient id="SVGID_3_" gradientUnits="userSpaceOnUse" x1="2.0508" y1="61.416" x2="75.3843" y2="136.749">
		<stop  offset="0" style="stop-color:#6B13D3"/>
		<stop  offset="0.3436" style="stop-color:#7A25E1"/>
		<stop  offset="1" style="stop-color:#4962DC"/>
	</linearGradient>
	<path fill="url(#SVGID_3_)" d="M39.231,94.86c-0.015,0.148-0.045,0.293-0.045,0.446c0,2.354,1.909,4.262,4.265,4.262
		s4.265-1.908,4.265-4.262s-1.909-4.262-4.265-4.262c-0.953,0-1.824,0.323-2.534,0.851L9.781,74.109
		c0.015-0.148,0.045-0.293,0.045-0.447c0-2.354-1.909-4.262-4.265-4.262c-2.355,0-4.264,1.908-4.264,4.262
		c0,2.354,1.909,4.263,4.264,4.263c0.953,0,1.824-0.324,2.534-0.852L39.231,94.86z"/>
	<linearGradient id="SVGID_4_" gradientUnits="userSpaceOnUse" x1="12.2153" y1="51.5215" x2="85.5488" y2="126.8545">
		<stop  offset="0" style="stop-color:#6B13D3"/>
		<stop  offset="0.3436" style="stop-color:#7A25E1"/>
		<stop  offset="1" style="stop-color:#4962DC"/>
	</linearGradient>
	<path fill="url(#SVGID_4_)" d="M18.069,107.815h32.422c21.677,0,33.223-20.093,33.223-34.599c0-9.982-4.009-24.249-15.311-31.605
		c-0.793-0.513-1.847-0.292-2.36,0.498c-0.515,0.789-0.292,1.844,0.498,2.359c9.507,6.188,13.762,18.898,13.762,28.749
		c0,10.875-8.744,31.189-29.812,31.189H17.752c-0.73-1.305-2.109-2.197-3.71-2.197c-2.355,0-4.264,1.908-4.264,4.262
		c0,1.747,1.054,3.245,2.559,3.902v9.208c0,0.942,0.763,1.704,1.706,1.704h59.796c0.658,1.504,2.157,2.558,3.905,2.558
		c2.355,0,4.265-1.908,4.265-4.262c0-2.354-1.909-4.262-4.265-4.262c-1.748,0-3.247,1.054-3.905,2.557h-58.09v-7.502
		C16.846,109.893,17.686,108.961,18.069,107.815z"/>
	<linearGradient id="SVGID_5_" gradientUnits="userSpaceOnUse" x1="53.1318" y1="11.6909" x2="126.4653" y2="87.0239">
		<stop  offset="0" style="stop-color:#6B13D3"/>
		<stop  offset="0.3436" style="stop-color:#7A25E1"/>
		<stop  offset="1" style="stop-color:#4962DC"/>
	</linearGradient>
	<path fill="url(#SVGID_5_)" d="M103.111,61.797c-4.221-14.151-14.769-26.546-27.959-32.4c-0.87-0.383-1.869,0.009-2.252,0.866
		c-0.381,0.86,0.007,1.868,0.866,2.251c12.264,5.44,22.077,16.956,26.039,30.121c-1.003,0.779-1.661,1.984-1.661,3.353
		c0,2.354,1.909,4.262,4.265,4.262s4.264-1.908,4.264-4.262C106.672,63.875,105.13,62.133,103.111,61.797z"/>
	<linearGradient id="SVGID_6_" gradientUnits="userSpaceOnUse" x1="19.8467" y1="44.0923" x2="93.1802" y2="119.4253">
		<stop  offset="0" style="stop-color:#6B13D3"/>
		<stop  offset="0.3436" style="stop-color:#7A25E1"/>
		<stop  offset="1" style="stop-color:#4962DC"/>
	</linearGradient>
	<path fill="url(#SVGID_6_)" d="M86.739,112.375c-1.126,0.852-1.331,2.472-0.478,3.581c0.511,0.665,1.263,1.005,2.047,1.005
		c0.528,0,1.074-0.171,1.534-0.529c1.126-0.853,1.348-2.455,0.478-3.58C89.468,111.727,87.865,111.521,86.739,112.375z"/>
	<linearGradient id="SVGID_7_" gradientUnits="userSpaceOnUse" x1="34.4551" y1="29.8721" x2="107.7886" y2="105.2051">
		<stop  offset="0" style="stop-color:#6B13D3"/>
		<stop  offset="0.3436" style="stop-color:#7A25E1"/>
		<stop  offset="1" style="stop-color:#4962DC"/>
	</linearGradient>
	<path fill="url(#SVGID_7_)" d="M101.733,95.634c-1.298-0.529-2.799,0.102-3.327,1.414c-0.53,1.297,0.102,2.797,1.416,3.324
		c0.306,0.12,0.631,0.189,0.955,0.189c1.006,0,1.962-0.596,2.372-1.604C103.677,97.662,103.046,96.162,101.733,95.634z"/>
	<linearGradient id="SVGID_8_" gradientUnits="userSpaceOnUse" x1="27.2979" y1="36.8389" x2="100.6313" y2="112.1719">
		<stop  offset="0" style="stop-color:#6B13D3"/>
		<stop  offset="0.3436" style="stop-color:#7A25E1"/>
		<stop  offset="1" style="stop-color:#4962DC"/>
	</linearGradient>
	<path fill="url(#SVGID_8_)" d="M97.195,105.01c-1.143-0.87-2.747-0.649-3.6,0.476c-0.853,1.126-0.631,2.729,0.495,3.598
		c0.461,0.341,1.006,0.511,1.552,0.511c0.768,0,1.536-0.341,2.031-1.006C98.526,107.465,98.303,105.863,97.195,105.01z"/>
	<linearGradient id="SVGID_9_" gradientUnits="userSpaceOnUse" x1="40.8486" y1="23.6479" x2="114.1821" y2="98.981">
		<stop  offset="0" style="stop-color:#6B13D3"/>
		<stop  offset="0.3436" style="stop-color:#7A25E1"/>
		<stop  offset="1" style="stop-color:#4962DC"/>
	</linearGradient>
	<path fill="url(#SVGID_9_)" d="M103.797,85.422c-1.399-0.189-2.695,0.784-2.884,2.183c-0.205,1.396,0.785,2.692,2.184,2.88
		c0.12,0.016,0.238,0.016,0.358,0.016c1.244,0,2.354-0.92,2.523-2.199C106.185,86.905,105.195,85.608,103.797,85.422z"/>
	<linearGradient id="SVGID_10_" gradientUnits="userSpaceOnUse" x1="46.2065" y1="18.4321" x2="119.54" y2="93.7651">
		<stop  offset="0" style="stop-color:#6B13D3"/>
		<stop  offset="0.3436" style="stop-color:#7A25E1"/>
		<stop  offset="1" style="stop-color:#4962DC"/>
	</linearGradient>
	<path fill="url(#SVGID_10_)" d="M103.576,75.004c-1.416,0.104-2.474,1.313-2.373,2.729c0.103,1.347,1.211,2.37,2.559,2.37
		c0.052,0,0.12,0,0.188,0c1.399-0.103,2.455-1.33,2.354-2.728C106.203,75.96,104.992,74.903,103.576,75.004z"/>
</g>
</svg>
