<svg xmlns="http://www.w3.org/2000/svg" xmlns:xlink="http://www.w3.org/1999/xlink" version="1.1" x="0px" y="0px" width="21.083px" height="21.166px" viewBox="0 0 21.083 21.166" enable-background="new 0 0 21.083 21.166" xml:space="preserve">
  <g id="Layer_2">
    <g>
      <path fill="#fff" d="M8 6.666c0 0.828 0.447 1.5 1 1.5h4v4c0 0.553 0.672 1.001 1.5 1.001s1.5-0.448 1.5-1.001v-4h4c0.598 0 1.083-0.672 1.083-1.5s-0.485-1.5-1.083-1.5h-4v-4C16 0.522 15.328 0 14.5 0S13 0.522 13 1.166v4H9C8.447 5.166 8 5.838 8 6.666z"/>
      <path fill="#fff" d="M19.5 12.666c-0.828 0-1.5 0.672-1.5 1.5v3.5c0 0.275-0.225 0.5-0.5 0.5h-14c-0.275 0-0.5-0.225-0.5-0.5v-14c0-0.275 0.225-0.5 0.5-0.5H7c0.828 0 1.5-0.672 1.5-1.5s-0.672-1.5-1.5-1.5H3.5c-1.93 0-3.5 1.57-3.5 3.5v14c0 1.93 1.57 3.5 3.5 3.5h14c1.93 0 3.5-1.57 3.5-3.5v-3.5C21 13.338 20.328 12.666 19.5 12.666z"/>
    </g>
  </g>
</svg>
