<svg version="1.1" id="Layer_1" xmlns="http://www.w3.org/2000/svg" xmlns:xlink="http://www.w3.org/1999/xlink" x="0px" y="0px" width="27px" height="23px" viewBox="0 0 27 23" xml:space="preserve" enable-background="new 0 0 27 23">
  <path fill="#FFFFFF" d="M24.999 6h-4.935l0 0V1.743C20.064 0.41 18.863 0 17.528 0H9.472C8.138 0 7.064 0.41 7.064 1.743V6l0 0H2.001c-1.334 0-2 0.538-2 1.871L0 20.518C0 21.85 1.082 23 2.417 23h22.167C25.917 23 27 21.785 27 20.453L26.999 7.938C26.999 6.604 26.333 6 24.999 6zM10.064 3h7v3h-7V3zM24.064 20h-21V9h21V20z"/>
</svg>
