<?xml version="1.0" encoding="utf-8"?>
<!-- Generator: Adobe Illustrator 15.0.2, SVG Export Plug-In . SVG Version: 6.00 Build 0)  -->
<!DOCTYPE svg PUBLIC "-//W3C//DTD SVG 1.1//EN" "http://www.w3.org/Graphics/SVG/1.1/DTD/svg11.dtd">
<svg version="1.1" id="Layer_1" xmlns="http://www.w3.org/2000/svg" xmlns:xlink="http://www.w3.org/1999/xlink" x="0px" y="0px"
	 width="100.304px" height="104.25px" viewBox="0 0 100 104" preserveAspectRatio = "xMidYMid">
<g>
	<linearGradient id="SVGID_1_" gradientUnits="userSpaceOnUse" x1="4.6987" y1="0.4717" x2="97.6987" y2="95.4717">
		<stop  offset="0" style="stop-color:#6B13D3"/>
		<stop  offset="0.3436" style="stop-color:#7A25E1"/>
		<stop  offset="1" style="stop-color:#4962DC"/>
	</linearGradient>
	<path fill="url(#SVGID_1_)" d="M78.726,72.346c-1.263-0.79-2.94-0.412-3.734,0.863c-0.775,1.256-0.396,2.927,0.884,3.717
		c0.432,0.27,0.938,0.396,1.425,0.396c0.902,0,1.785-0.449,2.29-1.276C80.385,74.789,79.988,73.118,78.726,72.346z"/>
	<linearGradient id="SVGID_2_" gradientUnits="userSpaceOnUse" x1="25.7896" y1="-20.1758" x2="118.7896" y2="74.8242">
		<stop  offset="0" style="stop-color:#6B13D3"/>
		<stop  offset="0.3436" style="stop-color:#7A25E1"/>
		<stop  offset="1" style="stop-color:#4962DC"/>
	</linearGradient>
	<path fill="url(#SVGID_2_)" d="M90.015,42.176c-1.461-0.342-2.922,0.555-3.265,2.011c-0.324,1.454,0.578,2.891,2.038,3.232
		c0.199,0.055,0.415,0.072,0.614,0.072c1.226,0,2.327-0.844,2.633-2.084C92.359,43.954,91.457,42.516,90.015,42.176z"/>
	<linearGradient id="SVGID_3_" gradientUnits="userSpaceOnUse" x1="38.0454" y1="-32.1729" x2="131.0454" y2="62.8271">
		<stop  offset="0" style="stop-color:#6B13D3"/>
		<stop  offset="0.3436" style="stop-color:#7A25E1"/>
		<stop  offset="1" style="stop-color:#4962DC"/>
	</linearGradient>
	<path fill="url(#SVGID_3_)" d="M92.756,20.822c-1.497-0.106-2.794,1.007-2.903,2.479c-0.108,1.491,1.01,2.784,2.506,2.891
		c0.055,0,0.127,0,0.199,0c1.406,0,2.597-1.077,2.687-2.496C95.353,22.206,94.234,20.931,92.756,20.822z"/>
	<linearGradient id="SVGID_4_" gradientUnits="userSpaceOnUse" x1="32.1025" y1="-26.3555" x2="125.1025" y2="68.6445">
		<stop  offset="0" style="stop-color:#6B13D3"/>
		<stop  offset="0.3436" style="stop-color:#7A25E1"/>
		<stop  offset="1" style="stop-color:#4962DC"/>
	</linearGradient>
	<path fill="url(#SVGID_4_)" d="M91.782,31.544c-1.479-0.216-2.85,0.809-3.066,2.28c-0.216,1.473,0.812,2.837,2.29,3.053
		c0.126,0.017,0.252,0.037,0.38,0.037c1.334,0,2.488-0.969,2.686-2.316C94.289,33.125,93.261,31.76,91.782,31.544z"/>
	<linearGradient id="SVGID_5_" gradientUnits="userSpaceOnUse" x1="19.1006" y1="-13.6274" x2="112.1006" y2="81.3726">
		<stop  offset="0" style="stop-color:#6B13D3"/>
		<stop  offset="0.3436" style="stop-color:#7A25E1"/>
		<stop  offset="1" style="stop-color:#4962DC"/>
	</linearGradient>
	<path fill="url(#SVGID_5_)" d="M87.31,52.609c-1.406-0.484-2.939,0.288-3.426,1.689c-0.487,1.401,0.271,2.944,1.695,3.411
		c0.289,0.091,0.577,0.144,0.865,0.144c1.136,0,2.182-0.7,2.561-1.831C89.492,54.621,88.716,53.078,87.31,52.609z"/>
	<linearGradient id="SVGID_6_" gradientUnits="userSpaceOnUse" x1="12.0542" y1="-6.7295" x2="105.0542" y2="88.2705">
		<stop  offset="0" style="stop-color:#6B13D3"/>
		<stop  offset="0.3436" style="stop-color:#7A25E1"/>
		<stop  offset="1" style="stop-color:#4962DC"/>
	</linearGradient>
	<path fill="url(#SVGID_6_)" d="M83.577,62.72c-1.352-0.628-2.958-0.053-3.589,1.312c-0.631,1.347-0.054,2.944,1.299,3.574
		c0.378,0.161,0.757,0.251,1.153,0.251c1.01,0,1.984-0.575,2.453-1.563C85.525,64.947,84.93,63.349,83.577,62.72z"/>
	<linearGradient id="SVGID_7_" gradientUnits="userSpaceOnUse" x1="-2.8506" y1="7.8618" x2="90.1494" y2="102.8618">
		<stop  offset="0" style="stop-color:#6B13D3"/>
		<stop  offset="0.3436" style="stop-color:#7A25E1"/>
		<stop  offset="1" style="stop-color:#4962DC"/>
	</linearGradient>
	<path fill="url(#SVGID_7_)" d="M71.024,77.934c-2.49,0-4.508,2.007-4.508,4.489c0,0.74,0.197,1.429,0.517,2.044
		c-4.944,5.311-10.659,10.099-17.082,14.268C23.458,81.548,9.708,54.791,7.93,17.106c1.23-0.597,2.153-1.723,2.444-3.09
		c8.839-2.967,18.021-4.942,27.357-5.856c0.991-0.096,1.716-0.975,1.619-1.962c-0.097-0.988-0.983-1.702-1.971-1.612
		c-9.468,0.926-18.783,2.906-27.757,5.888C8.803,9.339,7.475,8.594,5.966,8.594c-2.49,0-4.508,2.009-4.508,4.489
		c0,1.905,1.196,3.523,2.877,4.176c1.852,39.395,16.453,67.289,44.649,85.128c0.295,0.188,0.63,0.281,0.967,0.281
		s0.672-0.093,0.967-0.281c7.148-4.523,13.481-9.781,18.919-15.65c0.38,0.103,0.774,0.177,1.188,0.177
		c2.491,0,4.509-2.009,4.509-4.489C75.533,79.941,73.515,77.934,71.024,77.934z"/>
	<linearGradient id="SVGID_8_" gradientUnits="userSpaceOnUse" x1="17.6699" y1="-12.2271" x2="110.6699" y2="82.7729">
		<stop  offset="0" style="stop-color:#6B13D3"/>
		<stop  offset="0.3436" style="stop-color:#7A25E1"/>
		<stop  offset="1" style="stop-color:#4962DC"/>
	</linearGradient>
	<path fill="url(#SVGID_8_)" d="M93.937,8.594c-1.516,0-2.848,0.75-3.666,1.89C78.548,6.588,66.354,4.44,53.909,4.062
		c-0.76-1.412-2.237-2.383-3.958-2.383c-2.49,0-4.508,2.009-4.508,4.489c0,1.84,1.114,3.418,2.705,4.111v58.955
		c-1.591,0.692-2.705,2.271-2.705,4.11c0,2.48,2.018,4.49,4.508,4.49s4.508-2.01,4.508-4.49c0-1.84-1.114-3.418-2.705-4.11V10.28
		c1.135-0.495,2.012-1.446,2.43-2.615c12.102,0.405,23.956,2.533,35.348,6.361c0.435,2.025,2.24,3.546,4.405,3.546
		c2.49,0,4.508-2.01,4.508-4.49S96.427,8.594,93.937,8.594z"/>
</g>
</svg>
